<svg width="287" height="268" viewBox="0 0 287 268" fill="none" xmlns="http://www.w3.org/2000/svg">
<path d="M57.7288 106.069L102.249 28.9931C117.831 2.01615 156.909 2.42056 171.93 29.7143L178.729 42.0687M190.729 60.5C192.109 60.5 193.229 61.6193 193.229 63C193.229 64.3807 192.109 65.5 190.729 65.5C189.348 65.5 188.229 64.3807 188.229 63C188.229 61.6193 189.348 60.5 190.729 60.5Z" stroke="#386641" stroke-width="18"/>
<path d="M202.479 80.9998L246.968 158.093C262.54 185.076 242.651 218.716 211.503 218.078L197.404 217.789M175.442 218.966C174.752 220.161 173.223 220.571 172.027 219.881C170.832 219.19 170.422 217.661 171.112 216.466C171.803 215.27 173.332 214.86 174.527 215.55C175.723 216.241 176.133 217.77 175.442 218.966Z" stroke="#386641" stroke-width="18"/>
<path d="M151.814 218.891L62.8045 218.874C31.6505 218.867 12.4619 184.823 28.5886 158.168L35.8884 146.102M45.8503 126.494C45.16 125.299 45.5697 123.77 46.7654 123.079C47.9611 122.389 49.4901 122.799 50.1805 123.994C50.8708 125.19 50.4611 126.719 49.2654 127.409C48.0697 128.1 46.5407 127.69 45.8503 126.494Z" stroke="#386641" stroke-width="18"/>
<circle cx="173" cy="218" r="7" fill="#386641"/>
<circle cx="48" cy="125" r="7" fill="#386641"/>
<circle cx="191" cy="63" r="7" fill="#386641"/>
</svg>
