<svg width="859" height="222" viewBox="0 0 859 222" fill="none" xmlns="http://www.w3.org/2000/svg">
<path d="M175.479 59C175.479 57.6193 174.359 56.5 172.979 56.5C171.598 56.5 170.479 57.6193 170.479 59C170.479 60.3807 171.598 61.5 172.979 61.5C174.359 61.5 175.479 60.3807 175.479 59Z" fill="#386641"/>
<path d="M154.277 215.881C155.473 216.571 157.002 216.162 157.692 214.966C158.383 213.77 157.973 212.241 156.777 211.551C155.581 210.86 154.053 211.27 153.362 212.466C152.672 213.662 153.081 215.191 154.277 215.881Z" fill="#386641"/>
<path d="M29.0151 119.08C27.8194 119.77 27.4097 121.299 28.1001 122.495C28.7904 123.69 30.3194 124.1 31.5151 123.41C32.7109 122.719 33.1206 121.19 32.4302 119.995C31.7398 118.799 30.2109 118.389 29.0151 119.08Z" fill="#386641"/>
<path d="M39.9785 102.069L84.4987 24.9931C100.081 -1.98385 139.159 -1.57944 154.179 25.7143L160.979 38.0687M184.729 77.0001L229.218 154.093C244.789 181.077 224.9 214.717 193.753 214.078L179.654 213.789M134.064 214.892L45.0542 214.874C13.9003 214.868 -5.28831 180.823 10.8384 154.168L18.1381 142.103M172.979 56.5C174.359 56.5 175.479 57.6193 175.479 59C175.479 60.3807 174.359 61.5 172.979 61.5C171.598 61.5 170.479 60.3807 170.479 59C170.479 57.6193 171.598 56.5 172.979 56.5ZM157.692 214.966C157.002 216.162 155.473 216.571 154.277 215.881C153.081 215.191 152.672 213.662 153.362 212.466C154.053 211.27 155.581 210.86 156.777 211.551C157.973 212.241 158.383 213.77 157.692 214.966ZM28.1001 122.495C27.4097 121.299 27.8194 119.77 29.0151 119.08C30.2109 118.389 31.7398 118.799 32.4302 119.995C33.1206 121.19 32.7109 122.719 31.5151 123.41C30.3194 124.1 28.7904 123.69 28.1001 122.495Z" stroke="#386641" stroke-width="10"/>
<path d="M392.187 64.2881C393.383 63.5977 394.912 64.0074 395.602 65.2032C396.293 66.3989 395.883 67.9279 394.687 68.6182C393.491 69.3086 391.962 68.8989 391.272 67.7032C390.582 66.5074 390.991 64.9785 392.187 64.2881Z" fill="#386641"/>
<path d="M304.171 172.839L304.189 83.8298C304.195 52.6759 338.239 33.4873 364.895 49.614L376.96 56.9137M392.187 64.2881C393.383 63.5977 394.912 64.0074 395.602 65.2032C396.293 66.3989 395.883 67.9279 394.687 68.6182C393.491 69.3086 391.962 68.8989 391.272 67.7032C390.582 66.5074 390.991 64.9785 392.187 64.2881Z" stroke="#386641" stroke-width="10"/>
<path d="M508.291 173.848C498.889 173.848 491.295 171.058 485.508 165.479C479.826 159.899 476.984 152.512 476.984 143.316V93.2565C476.984 84.0608 479.826 76.7249 485.508 71.2488C491.295 65.6694 498.889 62.8797 508.291 62.8797C517.797 62.8797 525.391 65.6178 531.074 71.0938C536.86 76.5699 539.753 83.8541 539.753 92.9465V94.3413C539.753 95.3746 539.236 95.8912 538.203 95.8912L530.299 96.2011C529.265 96.2011 528.749 95.7362 528.749 94.8063V92.6365C528.749 86.6438 526.837 81.7877 523.014 78.0681C519.295 74.3485 514.387 72.4887 508.291 72.4887C502.195 72.4887 497.287 74.3485 493.568 78.0681C489.848 81.6844 487.988 86.5405 487.988 92.6365V144.091C487.988 150.187 489.848 155.095 493.568 158.814C497.287 162.431 502.195 164.239 508.291 164.239C514.387 164.239 519.295 162.379 523.014 158.659C526.837 154.94 528.749 150.084 528.749 144.091V141.921C528.749 140.991 529.265 140.526 530.299 140.526L538.203 140.991C539.236 140.991 539.753 141.508 539.753 142.541V143.626C539.753 152.718 536.86 160.054 531.074 165.634C525.391 171.11 517.797 173.848 508.291 173.848ZM581.839 172.453C580.806 172.453 580.289 171.936 580.289 170.903V124.718C580.289 124.305 580.238 124.046 580.134 123.943L553.322 65.9794L553.167 65.3595C553.167 64.5329 553.632 64.1196 554.562 64.1196H562.931C563.758 64.1196 564.326 64.5329 564.636 65.3595L585.404 111.699C585.507 111.906 585.662 112.009 585.869 112.009C586.075 112.009 586.23 111.906 586.334 111.699L607.101 65.3595C607.411 64.5329 607.98 64.1196 608.806 64.1196H617.175C617.692 64.1196 618.054 64.3262 618.26 64.7395C618.57 65.0495 618.622 65.4628 618.415 65.9794L591.448 123.943C591.345 124.046 591.293 124.305 591.293 124.718V170.903C591.293 171.936 590.776 172.453 589.743 172.453H581.839ZM662.82 173.848C653.418 173.848 645.824 171.058 640.038 165.479C634.355 159.899 631.514 152.512 631.514 143.316V93.2565C631.514 84.0608 634.355 76.7249 640.038 71.2488C645.824 65.6694 653.418 62.8797 662.82 62.8797C672.326 62.8797 679.92 65.6178 685.603 71.0938C691.389 76.5699 694.282 83.8541 694.282 92.9465V94.3413C694.282 95.3746 693.765 95.8912 692.732 95.8912L684.828 96.2011C683.795 96.2011 683.278 95.7362 683.278 94.8063V92.6365C683.278 86.6438 681.367 81.7877 677.544 78.0681C673.824 74.3485 668.916 72.4887 662.82 72.4887C656.724 72.4887 651.816 74.3485 648.097 78.0681C644.377 81.6844 642.517 86.5405 642.517 92.6365V144.091C642.517 150.187 644.377 155.095 648.097 158.814C651.816 162.431 656.724 164.239 662.82 164.239C668.916 164.239 673.824 162.379 677.544 158.659C681.367 154.94 683.278 150.084 683.278 144.091V141.921C683.278 140.991 683.795 140.526 684.828 140.526L692.732 140.991C693.765 140.991 694.282 141.508 694.282 142.541V143.626C694.282 152.718 691.389 160.054 685.603 165.634C679.92 171.11 672.326 173.848 662.82 173.848ZM717.586 172.608C716.553 172.608 716.036 172.091 716.036 171.058V65.6694C716.036 64.6362 716.553 64.1196 717.586 64.1196H725.49C726.524 64.1196 727.04 64.6362 727.04 65.6694V162.379C727.04 162.792 727.247 162.999 727.66 162.999H772.76C773.794 162.999 774.31 163.516 774.31 164.549V171.058C774.31 172.091 773.794 172.608 772.76 172.608H717.586ZM850.472 72.1787C850.472 73.2119 849.956 73.7286 848.923 73.7286H802.428C802.014 73.7286 801.808 73.9352 801.808 74.3485V112.784C801.808 113.198 802.014 113.404 802.428 113.404H833.734C834.767 113.404 835.284 113.921 835.284 114.954V121.463C835.284 122.497 834.767 123.013 833.734 123.013H802.428C802.014 123.013 801.808 123.22 801.808 123.633V162.379C801.808 162.792 802.014 162.999 802.428 162.999H848.923C849.956 162.999 850.472 163.516 850.472 164.549V171.058C850.472 172.091 849.956 172.608 848.923 172.608H792.354C791.32 172.608 790.804 172.091 790.804 171.058V65.6694C790.804 64.6362 791.32 64.1196 792.354 64.1196H848.923C849.956 64.1196 850.472 64.6362 850.472 65.6694V72.1787Z" fill="#386641"/>
<path d="M423.056 71.6079H453.454L409.454 115.108C409.454 115.108 428.174 97.0854 439.077 102.59C449.81 108.009 448.89 125.225 446.882 137.392C444.399 152.433 438.379 162.079 427.985 169.222C414.454 178.522 396.721 175.189 388.55 161.159C379.493 145.608 390.954 134.108 390.954 134.108" stroke="#386641" stroke-width="15" stroke-linecap="square" stroke-linejoin="round"/>
</svg>
